{
  "accessors": [
    {
      "bufferView": 2,
      "componentType": 5126,
      "count": 12500,
      "max": [
        2.3697099685668945,
        2.3680970668792725,
        -0.20885300636291504
      ],
      "min": [
        -2.3697099685668945,
        -2.2703049182891846,
        -5.021638870239258
      ],
      "type": "VEC3"
    },
    {
      "bufferView": 2,
      "byteOffset": 150000,
      "componentType": 5126,
      "count": 12500,
      "max": [
        1.0,
        1.0,
        1.0
      ],
      "min": [
        -1.0,
        -1.0,
        -1.0
      ],
      "type": "VEC3"
    },
    {
      "bufferView": 1,
      "componentType": 5126,
      "count": 12500,
      "max": [
        0.9994570016860962,
        0.9911860227584839
      ],
      "min": [
        0.0005430000019259751,
        0.0005430000019259751
      ],
      "type": "VEC2"
    },
    {
      "bufferView": 1,
      "byteOffset": 100000,
      "componentType": 5126,
      "count": 12500,
      "max": [
        0.9994570016860962,
        0.9911860227584839
      ],
      "min": [
        0.0005430000019259751,
        0.0005430000019259751
      ],
      "type": "VEC2"
    },
    {
      "bufferView": 1,
      "byteOffset": 200000,
      "componentType": 5126,
      "count": 12500,
      "max": [
        0.9994570016860962,
        0.9911860227584839
      ],
      "min": [
        0.0005430000019259751,
        0.0005430000019259751
      ],
      "type": "VEC2"
    },
    {
      "bufferView": 1,
      "byteOffset": 300000,
      "componentType": 5126,
      "count": 12500,
      "max": [
        0.9994570016860962,
        0.9911860227584839
      ],
      "min": [
        0.0005430000019259751,
        0.0005430000019259751
      ],
      "type": "VEC2"
    },
    {
      "bufferView": 0,
      "componentType": 5125,
      "count": 57858,
      "type": "SCALAR"
    }
  ],
  "asset": {
    "extras": {
      "author": "Egor Kotov (https://sketchfab.com/Egor_Kotov)",
      "license": "CC-BY-4.0 (http://creativecommons.org/licenses/by/4.0/)",
      "source": "https://sketchfab.com/3d-models/empire-stormtrooper-helmet-d12a1feb6d0e4b9e8c86d39bcd528593",
      "title": "Empire stormtrooper helmet"
    },
    "generator": "Sketchfab-12.66.0",
    "version": "2.0"
  },
  "bufferViews": [
    {
      "buffer": 0,
      "byteLength": 231432,
      "name": "floatBufferViews",
      "target": 34963
    },
    {
      "buffer": 0,
      "byteLength": 400000,
      "byteOffset": 231432,
      "byteStride": 8,
      "name": "floatBufferViews",
      "target": 34962
    },
    {
      "buffer": 0,
      "byteLength": 300000,
      "byteOffset": 631432,
      "byteStride": 12,
      "name": "floatBufferViews",
      "target": 34962
    }
  ],
  "buffers": [
    {
      "byteLength": 931432,
      "uri": "scene.bin"
    }
  ],
  "images": [
    {
      "uri": "textures/Untitled_d3011c1b-8d32-da8f-0e14-00c13cd8da71_baseColor.jpeg"
    },
    {
      "uri": "textures/Untitled_d3011c1b-8d32-da8f-0e14-00c13cd8da71_metallicRoughness.png"
    }
  ],
  "materials": [
    {
      "doubleSided": true,
      "name": "Untitled_d3011c1b-8d32-da8f-0e14-00c13cd8da71",
      "pbrMetallicRoughness": {
        "baseColorTexture": {
          "index": 0
        },
        "metallicRoughnessTexture": {
          "index": 1
        }
      }
    }
  ],
  "meshes": [
    {
      "name": "Object_0",
      "primitives": [
        {
          "attributes": {
            "NORMAL": 1,
            "POSITION": 0,
            "TEXCOORD_0": 2,
            "TEXCOORD_1": 3,
            "TEXCOORD_2": 4,
            "TEXCOORD_3": 5
          },
          "indices": 6,
          "material": 0,
          "mode": 4
        }
      ]
    }
  ],
  "nodes": [
    {
      "children": [
        1
      ],
      "matrix": [
        1.0,
        0.0,
        0.0,
        0.0,
        0.0,
        2.220446049250313e-16,
        -1.0,
        0.0,
        0.0,
        1.0,
        2.220446049250313e-16,
        0.0,
        0.0,
        0.0,
        0.0,
        1.0
      ],
      "name": "Sketchfab_model"
    },
    {
      "children": [
        2
      ],
      "name": "root"
    },
    {
      "children": [
        3
      ],
      "matrix": [
        1.0,
        0.0,
        0.0,
        0.0,
        0.0,
        2.220446049250313e-16,
        1.0,
        0.0,
        0.0,
        -1.0,
        2.220446049250313e-16,
        0.0,
        0.0,
        0.0,
        0.0,
        1.0
      ],
      "name": "GLTF_SceneRootNode"
    },
    {
      "children": [
        4
      ],
      "matrix": [
        0.10000000149011612,
        0.0,
        0.0,
        0.0,
        0.0,
        -1.6858739944363348e-08,
        0.1000000014901147,
        0.0,
        0.0,
        -0.1000000014901147,
        -1.6858739944363348e-08,
        0.0,
        0.0,
        0.0,
        0.0,
        1.0
      ],
      "name": "Sphere_0"
    },
    {
      "mesh": 0,
      "name": "Object_4"
    }
  ],
  "samplers": [
    {
      "magFilter": 9729,
      "minFilter": 9987,
      "wrapS": 10497,
      "wrapT": 10497
    }
  ],
  "scene": 0,
  "scenes": [
    {
      "name": "Sketchfab_Scene",
      "nodes": [
        0
      ]
    }
  ],
  "textures": [
    {
      "sampler": 0,
      "source": 0
    },
    {
      "sampler": 0,
      "source": 1
    }
  ]
}
