{
  "accessors": [
    {
      "bufferView": 2,
      "componentType": 5126,
      "count": 24359,
      "max": [
        0.7390699982643127,
        0.768235981464386,
        0.7800580263137817
      ],
      "min": [
        -0.7678689956665039,
        -1.0,
        -0.8063690066337585
      ],
      "type": "VEC3"
    },
    {
      "bufferView": 2,
      "byteOffset": 292308,
      "componentType": 5126,
      "count": 24359,
      "max": [
        0.9999998807907104,
        1.0,
        1.0
      ],
      "min": [
        -0.9999998807907104,
        -1.0,
        -1.0
      ],
      "type": "VEC3"
    },
    {
      "bufferView": 3,
      "componentType": 5126,
      "count": 24359,
      "max": [
        0.9999995827674866,
        1.0,
        0.9999843835830688,
        1.0
      ],
      "min": [
        -1.0,
        -0.9999670386314392,
        -1.0,
        -1.0
      ],
      "type": "VEC4"
    },
    {
      "bufferView": 1,
      "componentType": 5126,
      "count": 24359,
      "max": [
        0.9899669885635376,
        0.9916599988937378
      ],
      "min": [
        0.019650999456644058,
        0.010591000318527222
      ],
      "type": "VEC2"
    },
    {
      "bufferView": 0,
      "componentType": 5125,
      "count": 139260,
      "type": "SCALAR"
    },
    {
      "bufferView": 2,
      "byteOffset": 584616,
      "componentType": 5126,
      "count": 24747,
      "max": [
        0.8271430134773254,
        1.0,
        0.8063690066337585
      ],
      "min": [
        -0.8271430134773254,
        -0.9501940011978149,
        -0.8022609949111938
      ],
      "type": "VEC3"
    },
    {
      "bufferView": 2,
      "byteOffset": 881580,
      "componentType": 5126,
      "count": 24747,
      "max": [
        1.0,
        1.0,
        1.0
      ],
      "min": [
        -1.0,
        -1.0,
        -1.0
      ],
      "type": "VEC3"
    },
    {
      "bufferView": 3,
      "byteOffset": 389744,
      "componentType": 5126,
      "count": 24747,
      "max": [
        1.0,
        0.9999995827674866,
        0.9999909996986389,
        1.0
      ],
      "min": [
        -1.0,
        -1.0,
        -1.0,
        -1.0
      ],
      "type": "VEC4"
    },
    {
      "bufferView": 1,
      "byteOffset": 194872,
      "componentType": 5126,
      "count": 24747,
      "max": [
        0.9943119883537292,
        0.9875079989433289
      ],
      "min": [
        0.00977999996393919,
        0.014894000254571438
      ],
      "type": "VEC2"
    },
    {
      "bufferView": 0,
      "byteOffset": 557040,
      "componentType": 5125,
      "count": 132474,
      "type": "SCALAR"
    }
  ],
  "asset": {
    "extras": {
      "author": "Kaixl (https://sketchfab.com/Kaixl)",
      "license": "CC-BY-NC-ND-4.0 (http://creativecommons.org/licenses/by-nc-nd/4.0/)",
      "source": "https://sketchfab.com/3d-models/mandalorian-helmet-267b4413d687447d923f7f6c86d19183",
      "title": "Mandalorian Helmet"
    },
    "generator": "Sketchfab-12.67.0",
    "version": "2.0"
  },
  "bufferViews": [
    {
      "buffer": 0,
      "byteLength": 1086936,
      "name": "floatBufferViews",
      "target": 34963
    },
    {
      "buffer": 0,
      "byteLength": 392848,
      "byteOffset": 1086936,
      "byteStride": 8,
      "name": "floatBufferViews",
      "target": 34962
    },
    {
      "buffer": 0,
      "byteLength": 1178544,
      "byteOffset": 1479784,
      "byteStride": 12,
      "name": "floatBufferViews",
      "target": 34962
    },
    {
      "buffer": 0,
      "byteLength": 785696,
      "byteOffset": 2658328,
      "byteStride": 16,
      "name": "floatBufferViews",
      "target": 34962
    }
  ],
  "buffers": [
    {
      "byteLength": 3444024,
      "uri": "scene.bin"
    }
  ],
  "images": [
    {
      "uri": "textures/Helmet_baseColor.jpeg"
    },
    {
      "uri": "textures/Helmet_metallicRoughness.png"
    },
    {
      "uri": "textures/Helmet_normal.png"
    },
    {
      "uri": "textures/Details_baseColor.jpeg"
    },
    {
      "uri": "textures/Details_metallicRoughness.png"
    },
    {
      "uri": "textures/Details_emissive.jpeg"
    },
    {
      "uri": "textures/Details_normal.png"
    }
  ],
  "materials": [
    {
      "doubleSided": true,
      "name": "Helmet",
      "normalTexture": {
        "index": 2
      },
      "occlusionTexture": {
        "index": 1
      },
      "pbrMetallicRoughness": {
        "baseColorTexture": {
          "index": 0
        },
        "metallicRoughnessTexture": {
          "index": 1
        },
        "roughnessFactor": 0.4102515243902439
      }
    },
    {
      "doubleSided": true,
      "emissiveFactor": [
        1.0,
        1.0,
        1.0
      ],
      "emissiveTexture": {
        "index": 5
      },
      "name": "Details",
      "normalTexture": {
        "index": 6
      },
      "occlusionTexture": {
        "index": 4
      },
      "pbrMetallicRoughness": {
        "baseColorTexture": {
          "index": 3
        },
        "metallicRoughnessTexture": {
          "index": 4
        },
        "roughnessFactor": 0.5200076219512195
      }
    }
  ],
  "meshes": [
    {
      "name": "defaultMaterial",
      "primitives": [
        {
          "attributes": {
            "NORMAL": 1,
            "POSITION": 0,
            "TANGENT": 2,
            "TEXCOORD_0": 3
          },
          "indices": 4,
          "material": 0,
          "mode": 4
        }
      ]
    },
    {
      "name": "defaultMaterial",
      "primitives": [
        {
          "attributes": {
            "NORMAL": 6,
            "POSITION": 5,
            "TANGENT": 7,
            "TEXCOORD_0": 8
          },
          "indices": 9,
          "material": 1,
          "mode": 4
        }
      ]
    }
  ],
  "nodes": [
    {
      "children": [
        1
      ],
      "matrix": [
        1.0,
        0.0,
        0.0,
        0.0,
        0.0,
        2.220446049250313e-16,
        -1.0,
        0.0,
        0.0,
        1.0,
        2.220446049250313e-16,
        0.0,
        0.0,
        0.0,
        0.0,
        1.0
      ],
      "name": "Sketchfab_model"
    },
    {
      "children": [
        2
      ],
      "matrix": [
        1.0,
        0.0,
        0.0,
        0.0,
        0.0,
        -4.371139006309477e-08,
        0.999999999999999,
        0.0,
        0.0,
        -0.999999999999999,
        -4.371139006309477e-08,
        0.0,
        0.0,
        0.0,
        0.0,
        1.0
      ],
      "name": "Collada visual scene group"
    },
    {
      "children": [
        3,
        4
      ],
      "name": "Plane.010"
    },
    {
      "mesh": 0,
      "name": "defaultMaterial"
    },
    {
      "mesh": 1,
      "name": "defaultMaterial"
    }
  ],
  "samplers": [
    {
      "magFilter": 9729,
      "minFilter": 9987,
      "wrapS": 10497,
      "wrapT": 10497
    }
  ],
  "scene": 0,
  "scenes": [
    {
      "name": "Sketchfab_Scene",
      "nodes": [
        0
      ]
    }
  ],
  "textures": [
    {
      "sampler": 0,
      "source": 0
    },
    {
      "sampler": 0,
      "source": 1
    },
    {
      "sampler": 0,
      "source": 2
    },
    {
      "sampler": 0,
      "source": 3
    },
    {
      "sampler": 0,
      "source": 4
    },
    {
      "sampler": 0,
      "source": 5
    },
    {
      "sampler": 0,
      "source": 6
    }
  ]
}
